<svg xmlns="http://www.w3.org/2000/svg" viewBox="0 0 128 128" role="img" aria-labelledby="title desc">
  <title>Modern MKSAP Anki Cloze icon alternate candidate</title>
  <desc>A modern angled flashcard stack with a bright cloze highlight ribbon.</desc>
  <defs>
    <linearGradient id="bg" x1="18" y1="12" x2="111" y2="116" gradientUnits="userSpaceOnUse">
      <stop offset="0" stop-color="#2bd7df"/>
      <stop offset="0.5" stop-color="#0aa68f"/>
      <stop offset="1" stop-color="#1f695d"/>
    </linearGradient>
    <linearGradient id="frontCard" x1="31" y1="38" x2="96" y2="93" gradientUnits="userSpaceOnUse">
      <stop offset="0" stop-color="#ffffff"/>
      <stop offset="1" stop-color="#effcf8"/>
    </linearGradient>
    <linearGradient id="highlight" x1="42" y1="74" x2="89" y2="83" gradientUnits="userSpaceOnUse">
      <stop offset="0" stop-color="#ff8a5c"/>
      <stop offset="0.48" stop-color="#ffd166"/>
      <stop offset="1" stop-color="#48d6c4"/>
    </linearGradient>
  </defs>

  <rect width="128" height="128" rx="28" fill="url(#bg)"/>
  <path
    d="M17 45C28 25 48 15 76 17c18 1 32 8 42 22-13-7-30-10-50-10-22 0-39 5-51 16Z"
    fill="#ffffff"
    opacity="0.18"
  />
  <path d="M22 104c15 10 39 13 68 8 13-2 24-7 33-14v30H22Z" fill="#064b46" opacity="0.14"/>

  <g transform="rotate(-9 64 64)">
    <rect x="33" y="32" width="67" height="70" rx="18" fill="#07584f" opacity="0.24"/>
    <rect x="25" y="25" width="72" height="72" rx="18" fill="#d7f7f0"/>
  </g>
  <g transform="rotate(7 64 64)">
    <rect x="31" y="36" width="73" height="66" rx="18" fill="#07584f" opacity="0.16"/>
    <rect x="26" y="31" width="74" height="66" rx="18" fill="url(#frontCard)"/>
  </g>

  <rect x="39" y="50" width="48" height="8" rx="4" fill="#bfe9e0"/>
  <rect x="39" y="64" width="34" height="8" rx="4" fill="#d7f3ee"/>
  <rect x="37" y="78" width="53" height="13" rx="6.5" fill="#0e8f7e"/>
  <rect x="45" y="81" width="37" height="7" rx="3.5" fill="url(#highlight)"/>

  <circle cx="96" cy="33" r="12" fill="#ffd166"/>
  <path d="M96 27v12M90 33h12" stroke="#0e7367" stroke-width="4" stroke-linecap="round"/>
</svg>
